<?xml version="1.0" encoding="UTF-8"?>
<svg width="120" height="120" viewBox="0 0 120 120" fill="none" xmlns="http://www.w3.org/2000/svg">
  <path d="M60 0C26.863 0 0 26.863 0 60c0 33.137 26.863 60 60 60s60-26.863 60-60C120 26.863 93.137 0 60 0zm0 100c-22.091 0-40-17.909-40-40s17.909-40 40-40 40 17.909 40 40-17.909 40-40 40z" fill="#FFFFFF"/>
  <path d="M85.858 34.142c-14.142-14.142-37.573-14.142-51.716 0-14.142 14.142-14.142 37.573 0 51.716 14.142 14.142 37.573 14.142 51.716 0 14.142-14.142 14.142-37.573 0-51.716zM60 80c-11.046 0-20-8.954-20-20s8.954-20 20-20 20 8.954 20 20-8.954 20-20 20z" fill="#FFFFFF"/>
</svg> 